<mxfile host="app.diagrams.net" agent="Mozilla/5.0 (X11; Linux x86_64; rv:128.0) Gecko/20100101 Firefox/128.0" version="28.0.7">
  <diagram name="PÃ¡gina-1" id="OOEajuwFCBVglLIh1Zwi">
    <mxGraphModel dx="1042" dy="590" grid="1" gridSize="10" guides="1" tooltips="1" connect="1" arrows="1" fold="1" page="1" pageScale="1" pageWidth="827" pageHeight="1169" math="0" shadow="0">
      <root>
        <mxCell id="0" />
        <mxCell id="1" parent="0" />
        <mxCell id="XUkSvKQ6B125GiyjgEqH-1" value="" style="rounded=0;whiteSpace=wrap;html=1;" vertex="1" parent="1">
          <mxGeometry x="280" y="60" width="190" height="410" as="geometry" />
        </mxCell>
        <mxCell id="XUkSvKQ6B125GiyjgEqH-2" value="" style="rounded=0;whiteSpace=wrap;html=1;" vertex="1" parent="1">
          <mxGeometry x="315" y="100" width="120" height="160" as="geometry" />
        </mxCell>
        <mxCell id="XUkSvKQ6B125GiyjgEqH-3" value="" style="rounded=0;whiteSpace=wrap;html=1;" vertex="1" parent="1">
          <mxGeometry x="340" y="150" width="70" height="70" as="geometry" />
        </mxCell>
        <mxCell id="XUkSvKQ6B125GiyjgEqH-4" value="" style="rounded=0;whiteSpace=wrap;html=1;" vertex="1" parent="1">
          <mxGeometry x="315" y="310" width="120" height="110" as="geometry" />
        </mxCell>
        <mxCell id="XUkSvKQ6B125GiyjgEqH-5" value="A" style="text;html=1;align=center;verticalAlign=middle;whiteSpace=wrap;rounded=0;" vertex="1" parent="1">
          <mxGeometry x="270" y="60" width="50" height="30" as="geometry" />
        </mxCell>
        <mxCell id="XUkSvKQ6B125GiyjgEqH-6" value="B" style="text;html=1;align=center;verticalAlign=middle;whiteSpace=wrap;rounded=0;" vertex="1" parent="1">
          <mxGeometry x="300" y="100" width="60" height="30" as="geometry" />
        </mxCell>
        <mxCell id="XUkSvKQ6B125GiyjgEqH-7" value="C" style="text;html=1;align=center;verticalAlign=middle;whiteSpace=wrap;rounded=0;" vertex="1" parent="1">
          <mxGeometry x="330" y="150" width="50" height="30" as="geometry" />
        </mxCell>
        <mxCell id="XUkSvKQ6B125GiyjgEqH-8" value="D" style="text;html=1;align=center;verticalAlign=middle;whiteSpace=wrap;rounded=0;" vertex="1" parent="1">
          <mxGeometry x="305" y="310" width="50" height="30" as="geometry" />
        </mxCell>
      </root>
    </mxGraphModel>
  </diagram>
</mxfile>
